<?xml version="1.0" encoding="UTF-8"?>
<svg width="32" height="32" version="1.1" viewBox="0 0 8.4667 8.4667" xmlns="http://www.w3.org/2000/svg">
 <path d="m0.331 7.7813c1.5214e-4 -0.014112 0.074565-0.31389 0.16536-0.66618 0.19559-0.75885 0.19272-0.70256 0.047377-0.93044-0.61647-0.96653-0.041469-2.2897 1.1133-2.5619 0.35601-0.083919 0.42873-0.07334 0.38936 0.056639-0.017908 0.059118-0.041087 0.34561-0.051508 0.63665-0.013267 0.37052-0.032181 0.5444-0.063088 0.57999-0.32623 0.3756-0.090948 0.97646 0.39825 1.017 0.5646 0.046821 0.88315-0.5352 0.5509-1.0066-0.10094-0.1432-0.10284-0.15309-0.10279-0.53354 9.91e-5 -0.74711 0.0083899-0.75144 1.4386-0.75144h1.0583l0.25862 0.12349c1.203 0.57444 1.3655 2.1958 0.29642 2.9587-0.26876 0.19179-0.57641 0.29784-0.99664 0.34355-0.4451 0.048421-2.8218 0.022838-3.1003-0.033372l-0.20153-0.040677-0.29456 0.21173c-0.46115 0.33148-0.90644 0.62455-0.90614 0.59638zm4.4674-1.9697c0.27313-0.18407 0.34711-0.6064 0.1512-0.86325-0.36974-0.48476-1.1746-0.12707-1.0635 0.47262 0.073688 0.39766 0.5801 0.6145 0.91229 0.39063zm-2.4999-0.18767c-0.20063-0.082988-0.29559-0.35371-0.17198-0.4903 0.048547-0.053644 0.056224-0.14367 0.056224-0.65931 0-0.73793 0.033517-0.87159 0.28101-1.1206 0.30923-0.31111 0.36915-0.32307 1.7199-0.34329 0.83776-0.012541 1.1775-0.028749 1.2298-0.05867 0.16313-0.093356 0.34634-0.016991 0.42797 0.17839 0.10033 0.24012-0.16347 0.47361-0.40967 0.36259-0.11383-0.05133-0.2434-0.056129-1.2662-0.0469-1.5883 0.01433-1.5508-0.010756-1.5521 1.0398-5.831e-4 0.4813 0.008638 0.6073 0.046757 0.63894 0.22669 0.18814-0.082389 0.6149-0.36168 0.49938zm4.6448-0.45702c-0.16746-0.11699-0.18225-0.13872-0.23718-0.3484-0.064734-0.24713-0.18191-0.49766-0.32904-0.70355l-0.096421-0.13492 0.1161-0.17252c0.33624-0.49965 0.16357-1.2078-0.35973-1.4753-0.46181-0.23607-1.1687-0.035692-1.3409 0.38011l-0.04095 0.098862-0.63264-0.00386c-0.62992-0.0038438-0.63166-0.0040558-0.40412-0.049265 0.26007-0.051672 0.33628-0.10596 0.3822-0.27228 0.04426-0.1603 0.020596-0.23154-0.20237-0.60921-0.23216-0.39324-0.22952-0.34545-0.02943-0.53261 0.20731-0.19392 0.19832-0.19491 0.57715 0.063759 0.58457 0.39916 0.73841 0.33838 0.91563-0.36173 0.1092-0.43141 0.11159-0.43421 0.36746-0.43073 0.26429 0.0035907 0.29628 0.044898 0.37267 0.48111 0.071581 0.40879 0.10106 0.48133 0.2207 0.5432 0.175 0.090497 0.30633 0.060606 0.66475-0.15131 0.40279-0.23815 0.37093-0.23587 0.56366-0.040205 0.19694 0.19994 0.19764 0.1932-0.06009 0.5786-0.24478 0.36604-0.27408 0.45742-0.20201 0.62993 0.058188 0.13926 0.086405 0.15298 0.56042 0.27241 0.41611 0.10484 0.43656 0.12303 0.43059 0.38292-0.0059948 0.26078-0.021961 0.27329-0.4573 0.35841-0.48527 0.094883-0.47502 0.090948-0.54786 0.21041-0.10955 0.17966-0.084674 0.3046 0.13445 0.67522 0.23931 0.40476 0.23852 0.39149 0.03449 0.58234-0.19717 0.18443-0.179 0.18313-0.40023 0.028579z" fill="#fff" stroke-width=".033073"/>
</svg>
